<svg width="32" height="32" viewBox="0 0 32 32" fill="none" xmlns="http://www.w3.org/2000/svg">
<path d="M29.5315 9.99473C28.8493 9.30968 27.9236 8.92477 26.9583 8.92477C25.993 8.92477 25.0673 9.30968 24.3851 9.99473L22.7322 11.6528L15.6735 4.58154C13.568 2.47282 10.1578 2.47282 8.05234 4.58154L18.9013 15.4737L8.04297 26.3659C9.05334 27.3802 10.4241 27.9501 11.8535 27.9501C13.2829 27.9501 14.6537 27.3802 15.6641 26.3659L27.9379 14.0789C28.9941 12.9766 30.4785 12.3935 32 12.4835L29.5315 9.99473Z" fill="black"/>
<path d="M15.161 15.4831L7.62114 7.92287C6.61078 6.9086 5.23998 6.33873 3.81058 6.33873C2.38118 6.33873 1.01037 6.9086 0 7.92287L7.5274 15.4737L0 23.0246C1.01037 24.0389 2.38118 24.6088 3.81058 24.6088C5.23998 24.6088 6.61078 24.0389 7.62114 23.0246L15.161 15.4831Z" fill="black"/>
</svg>
